<svg xmlns="http://www.w3.org/2000/svg" width="375.001" height="494.845" viewBox="0 0 375.001 494.845">
  <g id="Group_66" data-name="Group 66" transform="translate(0.001 48.484)">
    <g id="Subtraction_5" data-name="Subtraction 5" transform="translate(-319 -542)" fill="#e5f6ff">
      <path d="M 319.4996948242188 987.57568359375 L 319.4996948242188 668.699951171875 L 693.4999389648438 494.3006591796875 L 693.5 813.17626953125 L 319.4996948242188 987.57568359375 Z" stroke="none"/>
      <path d="M 319.9996948242188 986.790771484375 L 693 812.8577270507812 L 692.9999389648438 495.0855407714844 L 319.9996948242188 669.0184936523438 L 319.9996948242188 986.790771484375 M 318.9992065429688 988.3606567382812 L 318.9996948242188 988.3604736328125 L 318.9996948242188 668.3814086914062 L 693.9999389648438 493.515869140625 L 694 813.4948120117188 L 318.9996948242188 988.3604736328125 L 318.9992065429688 988.3606567382812 Z" stroke="none" fill="#707070"/>
    </g>
    <g id="undraw_medical_research_qg4d" transform="translate(78.578 117.333)">
      <rect id="Rectangle_17" data-name="Rectangle 17" width="27.979" height="43.987" transform="translate(38.55 95.842)" fill="#ccc"/>
      <path id="Path_302" data-name="Path 302" d="M49.327,545.166H35.083L33.557,528h17.3Z" transform="translate(-25.022 -339.178)" fill="#e6e6e6"/>
      <path id="Path_303" data-name="Path 303" d="M379.3,701.753l-.481,9.239a3.7,3.7,0,0,0,.6,2.281,1.814,1.814,0,0,0,1.615.869l3.375-.287a1.038,1.038,0,0,0,.8-.61,2.005,2.005,0,0,0,.175-1.251l-1.874-10.536Z" transform="translate(-326.395 -508.198)" fill="#e6e6e6"/>
      <path id="Path_304" data-name="Path 304" d="M490.334,707.471c3.972,1.307,6.81,3.164,8.674,5.677a3.4,3.4,0,0,0,2.448,1.475,4.64,4.64,0,0,0,2.844-.549h0a1.649,1.649,0,0,0,.668-1.306,1.927,1.927,0,0,0-.48-1.49l-9.421-9.425-4,2.251-.934,1.313a1.651,1.651,0,0,0-.262,1.1A1.386,1.386,0,0,0,490.334,707.471Z" transform="translate(-409.193 -508.453)" fill="#e6e6e6"/>
      <path id="Path_305" data-name="Path 305" d="M364.718,222.356l-26.93-.351a42.95,42.95,0,0,1,2.975-15.776,19.638,19.638,0,0,0,.966-9.564c-.487-4.5.646-9.11,3.163-11.977a8.446,8.446,0,0,1,6.828-3.176l.523.031c3.461.2,6.612,2.866,8.361,7.07a16.108,16.108,0,0,1,1.008,7.26,16.092,16.092,0,0,0,1.193,7.153C364.454,208.312,364.811,215.077,364.718,222.356Z" transform="translate(-295.802 -174.186)" fill="#a0616a"/>
      <path id="Path_306" data-name="Path 306" d="M376.392,535.508l-5.285,1.938L345.37,458.615l1.609,76.893h-5.285c-5.648-36.176-15.844-77.927-11.26-91.109l27.345-2.262Z" transform="translate(-289.459 -341.616)" fill="#6c63ff"/>
      <ellipse id="Ellipse_248" data-name="Ellipse 248" cx="7.124" cy="10.016" rx="7.124" ry="10.016" transform="translate(48.558 14.905)" fill="#ffb9b9"/>
      <path id="Path_307" data-name="Path 307" d="M381.668,261.339l-11.719-.969a24.782,24.782,0,0,0,1.149-10.662h8.732C379.81,252.309,380.73,256.806,381.668,261.339Z" transform="translate(-319.782 -218.003)" fill="#ffb9b9"/>
      <path id="Path_308" data-name="Path 308" d="M196.765,171.987l-25.737,2.585,2.643-64.132,4.481-1.777,5.055,1.615,5.055-3.554,3.217,1.616Z" transform="translate(-127.526 -68.558)" fill="#6c63ff"/>
      <path id="Path_309" data-name="Path 309" d="M309.381,379.24,291.8,373.586c5.227-24.371,14.644-80.125,11.6-99.994l9.192-5.815Z" transform="translate(-261.513 -229.61)" fill="#e6e6e6"/>
      <path id="Path_310" data-name="Path 310" d="M307.952,316.933l-6.664-5.815,5.683-23.4a10.909,10.909,0,0,1,3.432-5.732l1.914-1.558-1.149,23.585Z" transform="translate(-268.586 -237.735)" fill="#e6e6e6"/>
      <path id="Path_311" data-name="Path 311" d="M428.8,372.748c-5.548,4.513-19.417,7.029-25.507,3.877-.448-22.02-1.327-84.3,1.494-110.655l10.111,5.815-.919,17.446C409.145,304.156,423.181,356.138,428.8,372.748Z" transform="translate(-344.28 -228.449)" fill="#e6e6e6"/>
      <path id="Path_312" data-name="Path 312" d="M286.688,154.135l-6.2-2.908-8.272-13.247,1.379-16.8,13.787,27.139Z" transform="translate(-202.972 -77.844)" fill="#e6e6e6"/>
      <path id="Path_313" data-name="Path 313" d="M425.277,401.327c.211,1.3,1.133,2.122,2.062,1.828l5.267-1.677-.761-4.726-5.267,1.677A2.568,2.568,0,0,0,425.277,401.327Z" transform="translate(-361.006 -312.461)" fill="#ffb9b9"/>
      <path id="Path_314" data-name="Path 314" d="M376.953,208.42c-3.957-2.288-7.865-2.453-11.72-.323l-1.609-8.077h14.707Z" transform="translate(-315.067 -186.084)" fill="#a0616a"/>
      <path id="Path_315" data-name="Path 315" d="M444.029,371.043l2.987,7.754c5.025-1.97,9.379-8.182,13.558-15.508l-1.149-5.169L452.3,360.7Z" transform="translate(-375.02 -287.644)" fill="#e6e6e6"/>
      <path id="Path_316" data-name="Path 316" d="M416.585,291.5h-.919c0-18.278-2.677-31.016-5.285-31.016l-.23-1.292c2.339,0,3.831,5.3,4.67,9.749A127.925,127.925,0,0,1,416.585,291.5Z" transform="translate(-349.759 -224.097)" fill="#3f3d56"/>
      <path id="Path_317" data-name="Path 317" d="M349.637,288.14h-.919c0-16.74,2.7-27.139,6.664-27.139l-.23,1.292C352.407,262.294,349.637,270.286,349.637,288.14Z" transform="translate(-303.952 -225.257)" fill="#3f3d56"/>
      <ellipse id="Ellipse_249" data-name="Ellipse 249" cx="2.298" cy="3.231" rx="2.298" ry="3.231" transform="translate(64.069 64.498)" fill="#3f3d56"/>
      <path id="Path_318" data-name="Path 318" d="M335.182,343.482h-.919c0-4.632,1.855-8.4,4.136-8.4v1.292C336.626,336.374,335.182,339.563,335.182,343.482Z" transform="translate(-293.174 -272.846)" fill="#3f3d56"/>
      <path id="Path_319" data-name="Path 319" d="M354.661,343.482h-.919c0-3.919-1.443-7.108-3.217-7.108v-1.292C352.806,335.082,354.661,338.85,354.661,343.482Z" transform="translate(-305.299 -272.846)" fill="#3f3d56"/>
      <ellipse id="Ellipse_250" data-name="Ellipse 250" cx="0.919" cy="1.292" rx="0.919" ry="1.292" transform="translate(47.983 69.667)" fill="#3f3d56"/>
      <ellipse id="Ellipse_251" data-name="Ellipse 251" cx="0.919" cy="1.292" rx="0.919" ry="1.292" transform="translate(40.63 69.667)" fill="#3f3d56"/>
      <path id="Path_320" data-name="Path 320" d="M118.177,165.193l5.735,1.44,13.108,26.2-6.964-2.3Z" transform="translate(-88.118 -106.117)" fill="#6c63ff"/>
      <path id="Path_321" data-name="Path 321" d="M285.491,325.347a.5.5,0,0,0-.424.365.93.93,0,0,0,.024.7l12.253,26.138a.525.525,0,0,0,.3.29l5.7,1.886a.434.434,0,0,0,.515-.283.921.921,0,0,0-.005-.777L290.4,326.769a.5.5,0,0,0-.313-.28l-4.5-1.13A.377.377,0,0,0,285.491,325.347Z" transform="translate(-256.449 -266.592)" fill="#3f3d56"/>
      <path id="Path_322" data-name="Path 322" d="M316.949,376.236l.341,4.823,5.374-.75c.947-.132,1.639-1.319,1.545-2.651s-.938-2.3-1.885-2.172Z" transform="translate(-280.264 -298.792)" fill="#ffb9b9"/>
      <path id="Path_323" data-name="Path 323" d="M298.578,368.781c.016,3.423,1.993,6.187,4.427,6.191h.884l.643-7.537-5.326-2.7Z" transform="translate(-266.566 -291.897)" fill="#e6e6e6"/>
      <rect id="Rectangle_18" data-name="Rectangle 18" width="104.796" height="77.603" transform="translate(112.568)" fill="#e6e6e6"/>
      <path id="Path_324" data-name="Path 324" d="M627.278,242.072h98.691v-69.02H627.278Z" transform="translate(-511.658 -168.76)" fill="#fff"/>
      <rect id="Rectangle_19" data-name="Rectangle 19" width="35.101" height="49.351" transform="translate(123.251 14.305)" fill="#3f3d56"/>
      <ellipse id="Ellipse_252" data-name="Ellipse 252" cx="1.017" cy="1.43" rx="1.017" ry="1.43" transform="translate(148.941 33.974)" fill="#6c63ff"/>
      <ellipse id="Ellipse_253" data-name="Ellipse 253" cx="1.017" cy="1.43" rx="1.017" ry="1.43" transform="translate(145.126 28.967)" fill="#6c63ff"/>
      <path id="Path_325" data-name="Path 325" d="M701.293,248.482a1.618,1.618,0,0,0-1.06.422,8.893,8.893,0,0,0-.983-1.622c0-.076.008-.153.008-.231a3.054,3.054,0,0,0-1.238-2.633,1.622,1.622,0,0,0-2.208.574,4.454,4.454,0,0,0-1.644-.02c0-.022,0-.044,0-.067a2.847,2.847,0,0,0-1.551-2.783c-.912-.314-1.858.29-2.29,1.461a3.717,3.717,0,0,0,.468,3.474,8.474,8.474,0,0,0-.922,1.371,1.592,1.592,0,0,0-2.424-.187,3.517,3.517,0,0,0-.826,3.21c.259,1.209,1.051,2.036,1.949,2.036h.006c0,.119-.006.238-.006.358a12.436,12.436,0,0,0,.184,2.135c-1.667.883-2.678,3.271-2.434,5.752s1.677,4.395,3.452,4.609,3.419-1.329,3.96-3.716a4.776,4.776,0,0,0,4.157-.867c.358,1.186,1.236,1.889,2.145,1.717a2.575,2.575,0,0,0,1.745-2.454,3.18,3.18,0,0,0-1.221-3.015,11.812,11.812,0,0,0,.724-3.8h.006c1.124,0,2.035-1.281,2.035-2.861s-.911-2.861-2.035-2.861Z" transform="translate(-555.659 -213.077)" fill="#6c63ff"/>
      <rect id="Rectangle_20" data-name="Rectangle 20" width="10.174" height="2.146" transform="translate(134.951 13.232)" fill="#e6e6e6"/>
      <rect id="Rectangle_21" data-name="Rectangle 21" width="35.101" height="49.351" transform="translate(168.018 14.305)" fill="#3f3d56"/>
      <ellipse id="Ellipse_254" data-name="Ellipse 254" cx="0.458" cy="0.644" rx="0.458" ry="0.644" transform="translate(191.775 46.49)" fill="#6c63ff"/>
      <ellipse id="Ellipse_255" data-name="Ellipse 255" cx="0.458" cy="0.644" rx="0.458" ry="0.644" transform="translate(190.058 44.237)" fill="#6c63ff"/>
      <path id="Path_326" data-name="Path 326" d="M901.035,287.645a.728.728,0,0,0-.477.19,4.009,4.009,0,0,0-.442-.73c0-.034,0-.069,0-.1a1.374,1.374,0,0,0-.557-1.185.73.73,0,0,0-.993.258,2.005,2.005,0,0,0-.74-.009c0-.01,0-.02,0-.03a1.281,1.281,0,0,0-.7-1.252c-.41-.141-.836.13-1.03.658a1.673,1.673,0,0,0,.211,1.563,3.818,3.818,0,0,0-.415.617.716.716,0,0,0-1.091-.084,1.582,1.582,0,0,0-.371,1.445c.116.544.473.916.877.916h0c0,.054,0,.107,0,.161a5.6,5.6,0,0,0,.083.961,2.641,2.641,0,0,0-1.1,2.588,2.122,2.122,0,0,0,1.553,2.074c.8.1,1.539-.6,1.782-1.672a2.149,2.149,0,0,0,1.871-.39c.161.534.556.85.965.773a1.159,1.159,0,0,0,.785-1.1,1.432,1.432,0,0,0-.55-1.357,5.314,5.314,0,0,0,.326-1.712h0c.506,0,.916-.576.916-1.287s-.41-1.287-.916-1.287Z" transform="translate(-710.748 -240.511)" fill="#6c63ff"/>
      <ellipse id="Ellipse_256" data-name="Ellipse 256" cx="0.458" cy="0.644" rx="0.458" ry="0.644" transform="translate(195.367 34.275)" fill="#6c63ff"/>
      <ellipse id="Ellipse_257" data-name="Ellipse 257" cx="0.458" cy="0.644" rx="0.458" ry="0.644" transform="translate(196.444 31.34)" fill="#6c63ff"/>
      <path id="Path_327" data-name="Path 327" d="M920.187,235.575a1.436,1.436,0,0,0-.26-.594,4.434,4.434,0,0,0,.38-.8.7.7,0,0,0,.072-.023,1.239,1.239,0,0,0,.66-1.075,1.5,1.5,0,0,0-.446-1.274,5.255,5.255,0,0,0-.194-1l.021-.007a1.315,1.315,0,0,0,.668-1.284,1.244,1.244,0,0,0-.73-1.216c-.414-.12-.832.172-1.013.709a2.727,2.727,0,0,0-.535-.394,1.664,1.664,0,0,0-.238-1.5.718.718,0,0,0-1.09-.111,1.569,1.569,0,0,0-.39,1.435v0c-.037.012-.074.025-.111.04a2.5,2.5,0,0,0-.636.373,1.447,1.447,0,0,0-2.069-.781,2.732,2.732,0,0,0-1,2.665c.151,1.107.827,1.92,1.628,1.958a4.9,4.9,0,0,0,.774,2.426,1.649,1.649,0,0,0-.267,1.516c.164.532.561.845.969.764a1.166,1.166,0,0,0,.78-1.112,2.048,2.048,0,0,0,1.26-.023v0c.137.684.643,1.083,1.13.89a1.412,1.412,0,0,0,.633-1.588Z" transform="translate(-724.89 -203.29)" fill="#6c63ff"/>
      <ellipse id="Ellipse_258" data-name="Ellipse 258" cx="0.458" cy="0.644" rx="0.458" ry="0.644" transform="translate(177.634 25.527)" fill="#6c63ff"/>
      <ellipse id="Ellipse_259" data-name="Ellipse 259" cx="0.458" cy="0.644" rx="0.458" ry="0.644" transform="translate(175.293 25.791)" fill="#6c63ff"/>
      <path id="Path_328" data-name="Path 328" d="M854.416,239.129a1.526,1.526,0,0,0-.222.623,2.055,2.055,0,0,0-.682-.033c-.017-.025-.033-.05-.052-.074a.723.723,0,0,0-1-.22,1.4,1.4,0,0,0-.534,1.206,3.751,3.751,0,0,0-.5.762l-.015-.021a.723.723,0,0,0-1.128-.119,1.6,1.6,0,0,0-.349,1.513c.146.557.543.9.963.835a5.658,5.658,0,0,0,.044.847,1.15,1.15,0,0,0-.78,1.076,1.465,1.465,0,0,0,.508,1.36.742.742,0,0,0,1.073-.293l0,0c.027.038.054.075.083.112a3.128,3.128,0,0,0,.561.562,3.021,3.021,0,0,0,.621,2.883,1.358,1.358,0,0,0,2.137-.215,3.158,3.158,0,0,0,.323-2.978,4.35,4.35,0,0,0,1.056-2.205.79.79,0,0,0,1.057-.481,1.716,1.716,0,0,0-.05-1.56.754.754,0,0,0-1.083-.344,4.437,4.437,0,0,0-.679-1.493l0,0a1.677,1.677,0,0,0-.059-1.819A.746.746,0,0,0,854.416,239.129Z" transform="translate(-677.636 -210.938)" fill="#6c63ff"/>
      <rect id="Rectangle_22" data-name="Rectangle 22" width="10.174" height="2.146" transform="translate(179.718 13.232)" fill="#e6e6e6"/>
      <path id="Path_329" data-name="Path 329" d="M190.925,640.083c3.668,6.906,11.281,7.633,11.281,7.633s1.667-10.47-2-17.376-11.281-7.633-11.281-7.633S187.257,633.177,190.925,640.083Z" transform="translate(-184.521 -457.61)" fill="#e6e6e6"/>
      <path id="Path_330" data-name="Path 330" d="M248.8,657.958a10.124,10.124,0,0,1-7.444,5.037s-1.1-6.909,1.32-11.466a10.124,10.124,0,0,1,7.444-5.037S251.222,653.4,248.8,657.958Z" transform="translate(-223.713 -472.89)" fill="#e6e6e6"/>
      <rect id="Rectangle_23" data-name="Rectangle 23" width="132.153" height="0.801" transform="translate(0 205.865)" fill="#3f3d56"/>
    </g>
  </g>
</svg>
