<svg xmlns="http://www.w3.org/2000/svg" width="375.001" height="494.845" viewBox="0 0 375.001 494.845">
  <g id="Group_68" data-name="Group 68" transform="translate(28.001 -1153.516)">
    <g id="Subtraction_5" data-name="Subtraction 5" transform="translate(-347 660)" fill="#e5f6ff">
      <path d="M 319.4996948242188 987.57568359375 L 319.4996948242188 668.699951171875 L 693.4999389648438 494.3006591796875 L 693.5 813.17626953125 L 319.4996948242188 987.57568359375 Z" stroke="none"/>
      <path d="M 319.9996948242188 986.790771484375 L 693 812.8577270507812 L 692.9999389648438 495.0855407714844 L 319.9996948242188 669.0184936523438 L 319.9996948242188 986.790771484375 M 318.9992065429688 988.3606567382812 L 318.9996948242188 988.3604736328125 L 318.9996948242188 668.3814086914062 L 693.9999389648438 493.515869140625 L 694 813.4948120117188 L 318.9996948242188 988.3604736328125 L 318.9992065429688 988.3606567382812 Z" stroke="none" fill="#707070"/>
    </g>
    <g id="undraw_social_distancing_2g0u" transform="translate(35.014 1286.246)">
      <ellipse id="Ellipse_236" data-name="Ellipse 236" cx="23.996" cy="48.194" rx="23.996" ry="48.194" transform="translate(7.095 33.669)" fill="#6c63ff"/>
      <path id="Path_241" data-name="Path 241" d="M264.837,286.149a349.711,349.711,0,0,1,3.633-35.289l-.523-.087a350.2,350.2,0,0,0-3.639,35.339c-1.106,19.387-1.373,48.711,3.639,78.313l.523-.086C263.466,334.786,263.732,305.507,264.837,286.149Z" transform="translate(-233.967 -203.786)" fill="#3f3d56"/>
      <rect id="Rectangle_7" data-name="Rectangle 7" width="24.526" height="0.685" transform="translate(30.842 83.52) rotate(-28.157)" fill="#3f3d56"/>
      <rect id="Rectangle_8" data-name="Rectangle 8" width="0.685" height="24.526" transform="translate(7.937 78.279) rotate(-61.858)" fill="#3f3d56"/>
      <ellipse id="Ellipse_237" data-name="Ellipse 237" cx="31.13" cy="62.523" rx="31.13" ry="62.523" transform="translate(166.349 0)" fill="#6c63ff"/>
      <path id="Path_242" data-name="Path 242" d="M925.027,176.744a453.7,453.7,0,0,1,4.714-45.789l-.5-.083a454.184,454.184,0,0,0-4.72,45.837c-1.435,25.147-1.781,63.182,4.72,101.578l.5-.081C923.248,239.856,923.594,201.863,925.027,176.744Z" transform="translate(-727.926 -113.58)" fill="#3f3d56"/>
      <rect id="Rectangle_9" data-name="Rectangle 9" width="31.817" height="0.705" transform="translate(197.2 64.753) rotate(-28.157)" fill="#3f3d56"/>
      <rect id="Rectangle_10" data-name="Rectangle 10" width="0.705" height="31.817" transform="translate(167.485 57.794) rotate(-61.858)" fill="#3f3d56"/>
      <ellipse id="Ellipse_238" data-name="Ellipse 238" cx="11.631" cy="23.36" rx="11.631" ry="23.36" transform="translate(148.341 95.26)" fill="#e6e6e6"/>
      <path id="Path_243" data-name="Path 243" d="M747.945,489.608l.069.127,10.516-5.541-.237-.437-10.326,5.44a171.692,171.692,0,0,1,1.764-17.439l-.5-.083a178.176,178.176,0,0,0-1.907,20.344l-10.415-5.487-.237.437,10.516,5.541.126-.231a170.008,170.008,0,0,0,1.917,34.526l.5-.081A172.488,172.488,0,0,1,747.945,489.608Z" transform="translate(-587.983 -369.981)" fill="#3f3d56"/>
      <path id="Path_244" data-name="Path 244" d="M364.595,694.859c-61.952-19.3-118.128-18.276-154.345-14.014-39.236,4.617-64.134,13.916-64.381,14.009l-.181-.462c.248-.094,25.2-9.414,64.5-14.038a380.022,380.022,0,0,1,69.666-1.754,368.545,368.545,0,0,1,84.891,15.788Z" transform="translate(-145.688 -525.024)" fill="#3f3d56"/>
      <path id="Path_245" data-name="Path 245" d="M462.2,715.064s.174-3.584,3.736-3.167" transform="translate(-382.566 -550.684)" fill="#3f3d56"/>
      <ellipse id="Ellipse_239" data-name="Ellipse 239" cx="1.783" cy="1.755" rx="1.783" ry="1.755" transform="translate(76.845 157.46)" fill="#6c63ff"/>
      <rect id="Rectangle_11" data-name="Rectangle 11" width="0.503" height="3.467" transform="translate(78.338 162.17)" fill="#3f3d56"/>
      <path id="Path_246" data-name="Path 246" d="M720.2,718.064s.174-3.584,3.736-3.167" transform="translate(-575.653 -552.941)" fill="#3f3d56"/>
      <ellipse id="Ellipse_240" data-name="Ellipse 240" cx="1.783" cy="1.755" rx="1.783" ry="1.755" transform="translate(141.758 158.203)" fill="#6c63ff"/>
      <rect id="Rectangle_12" data-name="Rectangle 12" width="0.503" height="3.467" transform="translate(143.251 162.913)" fill="#3f3d56"/>
      <path id="Path_247" data-name="Path 247" d="M295.2,693.064s.174-3.584,3.736-3.167" transform="translate(-257.583 -534.132)" fill="#3f3d56"/>
      <ellipse id="Ellipse_241" data-name="Ellipse 241" cx="1.783" cy="1.755" rx="1.783" ry="1.755" transform="translate(34.828 152.012)" fill="#6c63ff"/>
      <rect id="Rectangle_13" data-name="Rectangle 13" width="0.503" height="3.467" transform="translate(36.321 156.721)" fill="#3f3d56"/>
      <path id="Path_248" data-name="Path 248" d="M404.2,674.064s.174-3.584,3.736-3.167" transform="translate(-339.159 -519.838)" fill="#3f3d56"/>
      <ellipse id="Ellipse_242" data-name="Ellipse 242" cx="1.783" cy="1.755" rx="1.783" ry="1.755" transform="translate(62.252 147.306)" fill="#6c63ff"/>
      <rect id="Rectangle_14" data-name="Rectangle 14" width="0.503" height="3.467" transform="translate(63.745 152.016)" fill="#3f3d56"/>
      <path id="Path_249" data-name="Path 249" d="M677.2,701.064s.174-3.584,3.736-3.167" transform="translate(-543.472 -540.151)" fill="#3f3d56"/>
      <ellipse id="Ellipse_243" data-name="Ellipse 243" cx="1.783" cy="1.755" rx="1.783" ry="1.755" transform="translate(130.939 153.993)" fill="#6c63ff"/>
      <rect id="Rectangle_15" data-name="Rectangle 15" width="0.503" height="3.467" transform="translate(132.432 158.702)" fill="#3f3d56"/>
      <path id="Path_250" data-name="Path 250" d="M964.521,681.78l10.355,15.114-9.641,9.49-1.25-2.46L966.128,699s-.357-4.569-1.607-5.8-6.785-8.612-6.785-8.612Z" transform="translate(-753.425 -528.051)" fill="#ffb8b8"/>
      <path id="Path_251" data-name="Path 251" d="M881.206,484.5s1.964,3.059-2.143,16.24c0,0,19.154,31.821,16.119,33.93s-11.249,6.776-13.391,5.37-17.725-49.038-17.725-49.038Z" transform="translate(-683.322 -379.632)" fill="#fff"/>
      <path id="Path_252" data-name="Path 252" d="M972.889,731.808l3.124,3.076c1.607,1.582,2.678,3.866-.357,5.8s-13.569,9.139-17.14,6.854,4.285-4.394,4.285-4.394,1.3-4.741,1.989-3.689a7.287,7.287,0,0,1,.69,3.161Z" transform="translate(-753.312 -565.69)" fill="#e6e6e6"/>
      <path id="Path_253" data-name="Path 253" d="M808.842,710.327s-5.713,10.369-5.713,11.6.357,4.745.357,4.745l-10.891,2.636-3.749-1.757,1.25-3.163s6.785-2.285,8.213-6.678,3.035-8.963,3.035-8.963Z" transform="translate(-627.027 -548.339)" fill="#ffb8b8"/>
      <ellipse id="Ellipse_244" data-name="Ellipse 244" cx="7.499" cy="7.381" rx="7.499" ry="7.381" transform="translate(180.922 44.064)" fill="#ffb8b8"/>
      <path id="Path_254" data-name="Path 254" d="M886.774,286.85l3.58,10.126,7.847-3.447s-5.356-8.084-5.356-9.139Z" transform="translate(-700.317 -229.078)" fill="#ffb8b8"/>
      <path id="Path_255" data-name="Path 255" d="M843.979,439.8h9.463s6.785,10.193,2.857,20.914a54.875,54.875,0,0,0-1.795,6.66c-1.371,6.253-2.735,14.722-4.134,22.505-1.964,10.932-4,20.509-6.2,20.683-4.464.352-13.143.293-13.143-1.465s5.814-52.6,5.814-52.6l1.25-2.109.236-9.186a5.589,5.589,0,0,1,5.656-5.4Z" transform="translate(-658.593 -345.997)" fill="#fff"/>
      <path id="Path_256" data-name="Path 256" d="M782.327,761.613s2.053,3.427,1.518,5.887-1.428,2.109-5.356,2.46-17.319.352-17.319-2.109,10.446-5.656,10.49-4.673.4,2.916-.67,3.267-.089.088-.089.088Z" transform="translate(-606.315 -588.113)" fill="#e6e6e6"/>
      <path id="Path_257" data-name="Path 257" d="M863.485,523.32s-.777,12.484-5.957,8.768,2.019-10.43,2.019-10.43Z" transform="translate(-677.026 -407.584)" fill="#fff"/>
      <path id="Path_258" data-name="Path 258" d="M872.954,341.391a1.523,1.523,0,0,0,1.539-.179,1.548,1.548,0,0,0,.584-.979c.749-4.25,1.661-16.032,2.186-21.99a24.8,24.8,0,0,0-2.661-13.3l-1.94-2.626a1.537,1.537,0,0,0-1.823-.5s-6.056,6.185-6.079,6.424c-.095,1.025-.816,3.3-4.573,7-4.111,4.046-4.134,7.578-4.043,8.564q.009.1.009.194a4.272,4.272,0,0,0,.181,1.307c1.722,5.343.373,11.741-1.792,18.418a1.494,1.494,0,0,0,.617,1.634c.632.423-.126-.2.1.067,1.492,1.8,3.64-.709,6.1-3.446.856-.954,1.826-2.034,2.969-3.16,1.572-1.547,4.575,1.983,5.971,1.983A6.57,6.57,0,0,1,872.954,341.391Z" transform="translate(-676.157 -242.097)" fill="#575a89"/>
      <path id="Path_259" data-name="Path 259" d="M881.565,325.67s3.922,3.256,1.694,7.478a14.326,14.326,0,0,0-1.932,7.337s-.593,29.007-7.556,27.6l-3.167,8.607-5.72-2.032,3.307-7.591s-2.649-.162-1.875-1.939c.544-1.248,3.473-14.79,5.168-22.74.719-3.369,1.215-5.734,1.215-5.734S874.954,324.791,881.565,325.67Z" transform="translate(-683.934 -260.1)" fill="#575a89"/>
      <path id="Path_260" data-name="Path 260" d="M782.2,321.284,780,335.526l1.19-15.229Z" transform="translate(-583.751 -240.973)" opacity="0.2"/>
      <path id="Path_261" data-name="Path 261" d="M861.917,233.918s-1.261-9.657,9.026-6.491c0,0,7.347-1.327,9.756,7.719l2.44,9.482-1.189-.637-.554,1.193-1.927.48-.824-1.611-.4,1.956-15.78,1.548s7.067-4.114,7.179-11.488l-1.346,1.4Z" transform="translate(-681.677 -185.743)" fill="#2f2e41"/>
      <path id="Path_262" data-name="Path 262" d="M763.014,513.091l3.519-23.078-2.862,24.914Z" transform="translate(-571.04 -368.657)" opacity="0.2"/>
      <ellipse id="Ellipse_245" data-name="Ellipse 245" cx="3.968" cy="3.906" rx="3.968" ry="3.906" transform="translate(193.757 37.873)" fill="#2f2e41"/>
      <path id="Path_263" data-name="Path 263" d="M913.811,214.687a3.939,3.939,0,0,1,3.966-3.65c-.082-.01-.163-.023-.247-.028a3.906,3.906,0,1,0-.509,7.8c.083.005.166,0,.248,0A3.92,3.92,0,0,1,913.811,214.687Z" transform="translate(-720.175 -173.864)" fill="#2f2e41"/>
      <path id="Path_264" data-name="Path 264" d="M730.481,336.355l-3.491,18.417,4.525-20.342Z" transform="translate(-544.079 -251.606)" opacity="0.2"/>
      <path id="Path_265" data-name="Path 265" d="M868.759,274.086l-2.035,1.51a8.961,8.961,0,0,1-4.238-5.732l2.217-1.1C864.878,271.1,866.564,272.655,868.759,274.086Z" transform="translate(-682.14 -217.321)" fill="#fff"/>
      <path id="Path_266" data-name="Path 266" d="M875.194,269.1h-5.07a.166.166,0,1,1,0-.333h5.07a.166.166,0,1,1,0,.333Z" transform="translate(-687.73 -217.321)" fill="#fff"/>
      <path id="Path_267" data-name="Path 267" d="M886.245,279.139a.17.17,0,0,1-.14-.073.164.164,0,0,1-.017-.155l1.352-3.327a.17.17,0,0,1,.219-.093.165.165,0,0,1,.094.216l-1.352,3.327a.169.169,0,0,1-.157.1Z" transform="translate(-699.794 -222.374)" fill="#fff"/>
      <ellipse id="Ellipse_246" data-name="Ellipse 246" cx="1.24" cy="1.709" rx="1.24" ry="1.709" transform="translate(186.565 50.322)" fill="#ffb8b8"/>
      <path id="Path_268" data-name="Path 268" d="M399.191,195.263l13.205,2.975,5.579-10.358-11.292-4.339Z" transform="translate(-298.755 -138.085)" fill="#2f2e41"/>
      <path id="Path_269" data-name="Path 269" d="M543.3,508.615s-4.245,9.575-4.245,12.361c0,0,1.68,7.573,1.15,9.662l-1.857,3.917-3.891-1.567L533.4,522.543l.177-16.714Z" transform="translate(-435.851 -395.676)" fill="#ffb9b9"/>
      <path id="Path_270" data-name="Path 270" d="M580.912,281.036s.354,5.745-.354,7.486,2.653,5.049,2.653,5.049l5.306-6.79s-3.537-3.482-2.653-7.312Z" transform="translate(-471.072 -225.376)" fill="#ffb9b9"/>
      <path id="Path_271" data-name="Path 271" d="M531.38,445.634s-5.129,9.4-.177,8.7,3.272-8.966,3.272-8.966" transform="translate(-432.594 -350.192)" fill="#e6e6e6"/>
      <path id="Path_272" data-name="Path 272" d="M395.726,303.933l1.68-16.452-.088-10.011-3.891.7v9.227l-.8,16.8" transform="translate(-293.845 -208.752)" fill="#ffb9b9"/>
      <path id="Path_273" data-name="Path 273" d="M521.106,601.583l7.605-2.96.884,14.8s1.592,4.527,1.061,6.268c0,0,.354,2.96-.531,3.134a14.878,14.878,0,0,1-3.537.348c-.177-.174-.177-.7-.177-.7s-1.769,1.219-1.946,2.611c0,0-7.429,2.263-7.605.174s3.714-3.83,3.714-3.83l3.007-4.527Z" transform="translate(-423.47 -465.489)" fill="#2f2e41"/>
      <path id="Path_274" data-name="Path 274" d="M606.22,508.615s-4.245,9.575-4.245,12.361c0,0,1.68,7.573,1.15,9.662l-1.857,3.917-3.891-1.567-1.061-10.446.177-16.714Z" transform="translate(-482.938 -395.676)" fill="#ffb9b9"/>
      <path id="Path_275" data-name="Path 275" d="M585.077,601.583l7.605-2.96.884,14.8s1.592,4.527,1.061,6.268c0,0,.354,2.96-.531,3.134a14.875,14.875,0,0,1-3.537.348c-.177-.174-.177-.7-.177-.7s-1.769,1.219-1.946,2.612c0,0-7.429,2.263-7.605.174s3.714-3.83,3.714-3.83l3.007-4.527Z" transform="translate(-471.346 -465.489)" fill="#2f2e41"/>
      <path id="Path_276" data-name="Path 276" d="M578.11,252.7a5.669,5.669,0,0,1-11.183,1.219,5.316,5.316,0,0,1-.138-1.219,5.661,5.661,0,0,1,11.321,0Z" transform="translate(-460.84 -201.048)" fill="#ffb9b9"/>
      <path id="Path_277" data-name="Path 277" d="M552.113,307.8l4.392-2.245,1.975,1.549s4.776-.174,6.544,1.915,2.741,7.4,2.741,7.4-5.837-1.219-5.129,3.656l-1.061-2.786-.973,2.35-11.85,4-5.306-8.879s-3.537-1.045-4.776,1.393c0,0,.265-8.792,3.714-9.053,2.32-.176,4.068-.174,4.068-.174l1.946-.348,1.246-.435Z" transform="translate(-439.797 -245)" fill="#575a89"/>
      <path id="Path_278" data-name="Path 278" d="M553.317,386.283s9.286,27.421,6.633,31.251c0,0-9.9,4.875-29.714-1.741l8.048-30.728A27.767,27.767,0,0,1,553.317,386.283Z" transform="translate(-433.483 -304.421)" fill="#6c63fc"/>
      <path id="Path_279" data-name="Path 279" d="M573.835,328.922l2.613-8.84c-3.135-3.356-.429-10.8-.429-10.8l-3.783-.8s-3.8,10.076-7.687,8.858-1.769-9.053-1.769-9.053l-3.537.348-1.592,6.093,1.15,12.97A50.188,50.188,0,0,1,573.835,328.922Z" transform="translate(-454.002 -247.06)" fill="#575a89"/>
      <path id="Path_280" data-name="Path 280" d="M485.356,303.933l1.238-16.54.354-9.923-3.891.7v9.227l-.8,16.8" transform="translate(-360.924 -208.752)" fill="#ffb9b9"/>
      <path id="Path_281" data-name="Path 281" d="M621.01,445.634s-5.129,9.4-.177,8.7,3.272-8.966,3.272-8.966" transform="translate(-499.673 -350.192)" fill="#fff"/>
      <path id="Path_282" data-name="Path 282" d="M636.8,322.349s-.629-8.941-5.886-8.91v10.34S634.858,321.478,636.8,322.349Z" transform="translate(-508.834 -250.933)" fill="#575a89"/>
      <path id="Path_283" data-name="Path 283" d="M596.051,267.668a.144.144,0,0,1-.136-.1.141.141,0,0,1,.046-.158l2.887-2.273a.146.146,0,0,1,.2.022.141.141,0,0,1-.023.2l-2.887,2.273A.146.146,0,0,1,596.051,267.668Z" transform="translate(-482.632 -214.573)" fill="#fff"/>
      <path id="Path_284" data-name="Path 284" d="M573.393,276.677c-.064.077-.127.153-.193.224a5.742,5.742,0,0,1-4.861-.087,5.587,5.587,0,0,1-3-3.766l2.735-.5,5.318.5C572.175,274.509,572.322,275.014,573.393,276.677Z" transform="translate(-459.755 -220.173)" fill="#fff"/>
      <path id="Path_285" data-name="Path 285" d="M552.815,235.778a4.9,4.9,0,0,0-3.6,4.133,6.489,6.489,0,0,0-.057,1.834,5.128,5.128,0,0,1-1.555,3.871,37.727,37.727,0,0,0-2.776,3.51h0l3.057.8,1.366-4.985a25.3,25.3,0,0,1,3.027-6.849l.028-.044a5.023,5.023,0,0,0,3.736,3.036L555.2,240a34.859,34.859,0,0,0,4.983,2.363,1.172,1.172,0,0,1,.812.9,1.156,1.156,0,0,1-.43,1.127l-.039.03c-1.326.991-4.03,3.356-2.961,5.643s-.178,2.7-.178,2.7l2.3-.86,1.052-.443-.106.765,5.133.106s1.387-.008-1.077-3.653a3.392,3.392,0,0,1-.106-2.411,5.473,5.473,0,0,0,.569-2.541C564.993,240.052,563.42,232.577,552.815,235.778Z" transform="translate(-444.401 -191.92)" fill="#2f2e41"/>
      <path id="Path_286" data-name="Path 286" d="M231.824,541.848s0,23.642-5.512,29.843c0,0-1.181,3.1-1.575,4.263a16.14,16.14,0,0,1-.787,1.938v1.55s-10.631-1.163-11.812-3.876l1.969-2.325s.394-.388,0-1.55a.8.8,0,0,1,.787-1.163l2.756-6.2-.394-25.58,1.969-35.269,16.931-.775Z" transform="translate(-195.418 -393.324)" fill="#7977aa"/>
      <path id="Path_287" data-name="Path 287" d="M177.47,798.464s2.756,8.139,0,8.527-26.774.775-26.381-2.325,8.269-2.713,8.269-2.713l8.269-5.038Z" transform="translate(-149.727 -614.671)" fill="#2f2e41"/>
      <path id="Path_288" data-name="Path 288" d="M268.655,505.833a17.35,17.35,0,0,1-2.362,10.464c-3.15,5.426-1.181,23.642-1.181,23.642l27.956,24.03s-5.512,9.3-7.481,8.914-33.074-25.192-33.074-25.192l-12.206-40.308Z" transform="translate(-216.5 -395.679)" fill="#7977aa"/>
      <path id="Path_289" data-name="Path 289" d="M420.146,736.429s8.459,2.066,7.316,4.565-13.668,22.675-16.118,20.688,2.1-8.327,2.1-8.327l.1-9.572Z" transform="translate(-343.963 -569.166)" fill="#2f2e41"/>
      <path id="Path_290" data-name="Path 290" d="M274.066,187.675a8.779,8.779,0,0,1-2.019,5.606,9.112,9.112,0,0,1-8.789,3.138,9.038,9.038,0,0,1-7.041-6.613,8.65,8.65,0,0,1-.263-2.131,9.057,9.057,0,0,1,18.113,0Z" transform="translate(-228.211 -149.609)" fill="#a0616a"/>
      <path id="Path_291" data-name="Path 291" d="M290.837,227.453l-.4,11.471-7.62,2.964s-.747-11.745-1.8-12.4S290.837,227.453,290.837,227.453Z" transform="translate(-246.913 -186.242)" fill="#a0616a"/>
      <path id="Path_292" data-name="Path 292" d="M241.882,260.791s10.631-10.464,13.387-10.077,2.756,1.55,2.756,2.325-.788,1.163,0,1.55,1.575,0,1.575,1.163,7.087,12.79,4.725,25.58-5.119,18.991-3.937,25.967.394,8.527.394,8.527-29.531,2.325-29.924-.388,1.181-1.163-.787-3.1-1.181-1.938-1.181-3.1S237.551,260.791,241.882,260.791Z" transform="translate(-207.839 -203.735)" fill="#575a89"/>
      <path id="Path_293" data-name="Path 293" d="M274.591,493.672s-4.725,11.24-8.269,8.527,1.575-12.015,1.575-12.015Z" transform="translate(-235.036 -383.905)" fill="#fff"/>
      <path id="Path_294" data-name="Path 294" d="M288.556,294.35s9.251,1.043,5.807,17.768-16.831,36.1-16.831,36.1l-9.056-4.263,11.812-22.867-2.756-14.34S275.956,293.188,288.556,294.35Z" transform="translate(-237.582 -236.518)" fill="#575a89"/>
      <path id="Path_295" data-name="Path 295" d="M131.868,342.279,118.874,363.6l1.181,1.163Z" transform="translate(-88.965 -257.511)" opacity="0.2"/>
      <path id="Path_296" data-name="Path 296" d="M166.854,382.389,156.433,399.2h3.544Z" transform="translate(-117.074 -287.687)" opacity="0.2"/>
      <rect id="Rectangle_16" data-name="Rectangle 16" width="0.711" height="28.681" transform="translate(25.716 125.445) rotate(-20.877)" opacity="0.2"/>
      <ellipse id="Ellipse_247" data-name="Ellipse 247" cx="0.56" cy="0.551" rx="0.56" ry="0.551" transform="translate(33.539 58.082)" fill="#d0cde1"/>
      <line id="Line_1" data-name="Line 1" x1="4.761" y2="15.162" transform="translate(29.338 58.633)" fill="none"/>
      <path id="Path_297" data-name="Path 297" d="M261.461,312.4a.279.279,0,0,0,.267-.194l4.761-15.162a.275.275,0,0,0-.185-.345.281.281,0,0,0-.35.182l-4.761,15.162a.272.272,0,0,0,.042.245.282.282,0,0,0,.225.112Z" transform="translate(-232.123 -238.331)" fill="#d0cde1"/>
      <path id="Path_298" data-name="Path 298" d="M262.48,224.337l-2.263,2.119A11.6,11.6,0,0,1,255,219.641l2.969-1.225C258.163,221.017,260.038,222.745,262.48,224.337Z" transform="translate(-227.497 -179.443)" fill="#fff"/>
      <path id="Path_299" data-name="Path 299" d="M270.758,219.526l-.027,0-5.263-.74a.186.186,0,0,1-.16-.209.188.188,0,0,1,.213-.157l5.263.74a.185.185,0,0,1-.026.368Z" transform="translate(-235.211 -179.443)" fill="#fff"/>
      <path id="Path_300" data-name="Path 300" d="M283.425,231.916a.188.188,0,0,1-.162-.092.182.182,0,0,1,0-.184l1.744-3.056a.189.189,0,0,1,.256-.07.183.183,0,0,1,.072.252l-1.744,3.056a.188.188,0,0,1-.164.094Z" transform="translate(-248.63 -187.022)" fill="#fff"/>
      <path id="Path_301" data-name="Path 301" d="M269.46,180.421a13.193,13.193,0,0,0-2.378-.7,6.115,6.115,0,0,1-4.134-6.866,3.452,3.452,0,0,0,.149-1.132,2.184,2.184,0,0,0-1.83-1.587,18.27,18.27,0,0,1-2.549-.478,3.805,3.805,0,0,1-2.252-3.047,6.213,6.213,0,0,1,.854-3.793l.3.863a3.2,3.2,0,0,0,1-1.466,2.046,2.046,0,0,1,1.564,1.238c.489.284.56-.882,1.1-1.054a.983.983,0,0,1,.675.164c1.089.5,2.355.073,3.523-.2a13.467,13.467,0,0,1,6.156-.007,7.41,7.41,0,0,1,3.638,1.843,8.563,8.563,0,0,1,1.7,2.879,16.354,16.354,0,0,1,1.373,8.054,11.317,11.317,0,0,1-2.729,6.04c-.779.884-3.322,3.967-4.716,3.441C269.155,183.95,271.524,181.5,269.46,180.421Z" transform="translate(-228.562 -136.999)" fill="#2f2e41"/>
    </g>
  </g>
</svg>
