<svg xmlns="http://www.w3.org/2000/svg" width="375.001" height="494.845" viewBox="0 0 375.001 494.845">
  <g id="Group_67" data-name="Group 67" transform="translate(0.001 -283.516)">
    <g id="Subtraction_3" data-name="Subtraction 3" transform="translate(-319 -210)" fill="#e5f6ff">
      <path d="M 319.4996948242188 987.57568359375 L 319.4996948242188 668.699951171875 L 693.4999389648438 494.3006591796875 L 693.5 813.17626953125 L 319.4996948242188 987.57568359375 Z" stroke="none"/>
      <path d="M 319.9996948242188 986.790771484375 L 693 812.8577270507812 L 692.9999389648438 495.0855407714844 L 319.9996948242188 669.0184936523438 L 319.9996948242188 986.790771484375 M 318.9992065429688 988.3606567382812 L 318.9996948242188 988.3604736328125 L 318.9996948242188 668.3814086914062 L 693.9999389648438 493.515869140625 L 694 813.4948120117188 L 318.9996948242188 988.3604736328125 L 318.9992065429688 988.3606567382812 Z" stroke="none" fill="#707070"/>
    </g>
    <g id="undraw_wash_hands_nwl2" transform="translate(111 404.998)">
      <path id="Path_116" data-name="Path 116" d="M302.338,103.541l-2.322-.008-8.9-.027-1.978,0-6-.015-1.482-.008H281l-30.928-.085-.491,0h-.468l-1.88-.008-5.309-.012-2.562-.008-5.317-.015v-77l65.586-5.792,2.322-.205Z" transform="translate(-150.077 -13.047)" opacity="0.2"/>
      <path id="Path_117" data-name="Path 117" d="M682.586,224.92v.008l-6.5-.019-2.4-.008-1.977,0-2.84-.008-1.134,0-2.02,0-1.049,0h-.437l-.646,0h-.012l-4.879-.012-.882,0-12.51-.035-2.248-.008-9.174-.027-1.234,0h-.5a.012.012,0,0,0,0-.008h-.468l-1.881-.008-5.309-.012v0l-2.561-.008-1.761,0h-.395l-5.483-.015v-77l67.908-6v.205Z" transform="translate(-532.646 -134.434)" fill="#e6e6e6"/>
      <circle id="Ellipse_223" data-name="Ellipse 223" cx="2.709" cy="2.709" r="2.709" transform="translate(112.987 0.53)" opacity="0.2"/>
      <circle id="Ellipse_224" data-name="Ellipse 224" cx="2.709" cy="2.709" r="2.709" transform="translate(111.439 0.53)" fill="#3f3d56"/>
      <rect id="Rectangle_1" data-name="Rectangle 1" width="42.564" height="3.096" transform="translate(94.357 3.392) rotate(-4.568)" opacity="0.2"/>
      <rect id="Rectangle_2" data-name="Rectangle 2" width="42.564" height="3.096" transform="translate(92.809 3.392) rotate(-4.568)" fill="#e6e6e6"/>
      <path id="Path_118" data-name="Path 118" d="M687.448,297.53c-2.275-8.621-3.486-9.287-3.486-9.287l-12.831-6.458-.085-.031-7.213,5.32-3.107-4.783-.155-.135-.193.077a70.99,70.99,0,0,0-11.113,5.642l-.131-.019-5.026,2.5-.9,3.332-1.041,3.842-3.583,16.646v0l2.562.008v0l5.309.012.836-4.1,1.045,4.109h.468a.012.012,0,0,1,0,.008h.5l1.234,0,9.174.027,2.248.008,12.51.035.882,0,4.879.012h.012l.646,0v-.012l.333-3.626.2-1.014.948,4.647,0,.008,2.02,0,1.134,0,2.84.008,1.977,0v-.008C689.789,310.632,688.284,300.7,687.448,297.53Z" transform="translate(-548.222 -224.219)" fill="#6c63ff" opacity="0.56"/>
      <path id="Path_119" data-name="Path 119" d="M711.944,241.8l.005.017c-.006,0-.007,0-.005-.017-.051-.177-.7-2.263-2.554-1.189-1.936,1.12-4.25-5.914-4.25-5.914s-5.828,1.6-9.385,1.358a2.2,2.2,0,0,1-.7-.169,9.08,9.08,0,0,0,1.71,10.321l-.628,5.6,3.229,5.023,7.175-5.381s.091,1.37.385-3.321a9.086,9.086,0,0,0,5.278-6.932C712.057,241.524,711.955,241.74,711.944,241.8Z" transform="translate(-583.855 -194.043)" fill="#ffb8b8" opacity="0.56"/>
      <path id="Path_120" data-name="Path 120" d="M711.412,230.7c.793-1.8,2.917-7.111-.814-10.309-3.087-2.646-13.975-5.007-17.455,2.017a2.185,2.185,0,0,0,1.12,2.984c.05-.1.107-.2.161-.305a2.146,2.146,0,0,0,.54.115c3.557.246,9.385-1.358,9.385-1.358s2.314,7.035,4.25,5.914c1.855-1.074,2.5,1.013,2.554,1.189.011-.06.113-.275.258-.606a9.15,9.15,0,0,0,.1-1.212c0,.071.005.142.005.214a9.141,9.141,0,0,1-.1,1.357Z" transform="translate(-583.065 -183.192)" fill="#2f2e41" opacity="0.56"/>
      <ellipse id="Ellipse_225" data-name="Ellipse 225" cx="59.589" cy="9.287" rx="59.589" ry="9.287" transform="translate(0 217.218)" fill="#e6e6e6"/>
      <path id="Path_121" data-name="Path 121" d="M262.835,430.685l-12.963,15.006-.24.278-75.987-11.608V347.686h89Z" transform="translate(-111.347 -222.947)" fill="#3f3d56"/>
      <rect id="Rectangle_3" data-name="Rectangle 3" width="0.774" height="15.521" transform="matrix(0.075, -0.997, 0.997, 0.075, 69.814, 158.208)" fill="#e6e6e6"/>
      <rect id="Rectangle_4" data-name="Rectangle 4" width="0.774" height="16.293" transform="translate(107.737 161.691) rotate(-85.914)" fill="#e6e6e6"/>
      <path id="Path_122" data-name="Path 122" d="M249.314,406.8l-76.227-4.644-.047.772,34.85,2.123.593,69.682.774-.007-.592-69.628,40.6,2.473Z" transform="translate(-110.959 -257.874)" fill="#e6e6e6"/>
      <path id="Path_123" data-name="Path 123" d="M399.08,430.685l-12.963,15.006v-98h12.769Z" transform="translate(-247.592 -222.947)" opacity="0.2"/>
      <path id="Path_124" data-name="Path 124" d="M562.475,455.253H555.51V450.61l18.573-3.482,1.161-2.322,72.745,1.935v6.578l-14.51,5.3-9.48-.267s-14.317,12-31.342,10.834S562.475,455.253,562.475,455.253Z" transform="translate(-494.954 -328.773)" fill="#e6e6e6"/>
      <path id="Path_125" data-name="Path 125" d="M657.9,458.932l-4.063,2.9-11.38-.275s0,0,0,0h-.019l-.867-.019h0l-.72-.019-2.271-.054-.19,0-2.008-.046-.073,0-2.5-.058-.162,0L631.8,461.3l-.3,0-2.167-.054-.7-.015-3.9-.093-.983-.023-10.355-.248s-7.379.368-7.727-1.776a1.054,1.054,0,0,1-.012-.159c0-1.219,1.285-1.478,2.5-1.447a11.281,11.281,0,0,1,2.144.286l2.972.074,1.853.043,5.816.143,4.972.12,1.761.046,2.519.062,1,.023,3.707.089,1.733.043,3.661.089Z" transform="translate(-527.113 -336.902)" fill="#ccc"/>
      <circle id="Ellipse_226" data-name="Ellipse 226" cx="0.774" cy="0.774" r="0.774" transform="translate(108.344 122.417)" fill="#3f3d56"/>
      <ellipse id="Ellipse_227" data-name="Ellipse 227" cx="7.352" cy="0.774" rx="7.352" ry="0.774" transform="translate(102.153 119.708)" fill="#ccc"/>
      <path id="Path_126" data-name="Path 126" d="M2.87,0h6.6V3.1H0V2.87A2.87,2.87,0,0,1,2.87,0Z" transform="matrix(0.972, 0.237, -0.237, 0.972, 102.116, 109.967)" fill="#3f3d56"/>
      <path id="Path_127" data-name="Path 127" d="M0,0H3.482V.113A1.435,1.435,0,0,1,2.047,1.548H1.435A1.435,1.435,0,0,1,0,.113V0Z" transform="translate(102.48 113.075) rotate(8.546)" fill="#3f3d56"/>
      <path id="Path_128" data-name="Path 128" d="M678.509,436.308l-4.812-1.173a1.543,1.543,0,0,1-1.611.847l-.383-.057a1.542,1.542,0,0,1-1.309-1.594l-.819-.2a3.092,3.092,0,0,0-.271.708l1.091.266A1.542,1.542,0,0,0,671.7,436.7l.383.057a1.543,1.543,0,0,0,1.611-.847l4.812,1.173.733-3.007-.178-.043Z" transform="translate(-567.923 -321.864)" opacity="0.2"/>
      <path id="Path_129" data-name="Path 129" d="M687.647,438.231h0a2.826,2.826,0,0,1-2.822-2.974l.424-8.054,5.224-.193v8.4A2.826,2.826,0,0,1,687.647,438.231Z" transform="translate(-577.873 -317.362)" fill="#3f3d56"/>
      <path id="Path_130" data-name="Path 130" d="M689.365,419.25h-4.7c.816-1.238.307-2.506-.835-3.788a.515.515,0,0,1,.386-.855H686a3.642,3.642,0,0,1,3.36,3.869Z" transform="translate(-577.152 -309.408)" fill="#3f3d56"/>
      <path id="Path_131" data-name="Path 131" d="M685.373,415.461a.515.515,0,0,1,.386-.855h-1.548a.515.515,0,0,0-.386.855c1.142,1.283,1.651,2.551.835,3.788h1.548C687.024,418.012,686.515,416.744,685.373,415.461Z" transform="translate(-577.152 -309.408)" opacity="0.2"/>
      <path id="Path_132" data-name="Path 132" d="M623.6,440.262l5.951,2.1s14.155,1.129,12.319,4.73-13.952,1.274-13.952,1.274l-5.738-3.984Z" transform="translate(-537.706 -325.86)" fill="#ffb8b8"/>
      <path id="Path_133" data-name="Path 133" d="M643.353,452.259a1.544,1.544,0,0,0-1.54,1.469,1.158,1.158,0,0,0-.291-.2,1.552,1.552,0,1,0-1.292.211,1.159,1.159,0,1,0,1.94,1.051,1.545,1.545,0,1,0,1.182-2.536Z" transform="translate(-548.553 -332.55)" fill="#fff"/>
      <path id="Path_134" data-name="Path 134" d="M650.9,454.416a1.544,1.544,0,0,0-1.54,1.469,1.157,1.157,0,0,0-.291-.2,1.552,1.552,0,1,0-1.292.211,1.159,1.159,0,1,0,1.94,1.051,1.545,1.545,0,1,0,1.182-2.536Z" transform="translate(-553.394 -333.934)" fill="#fff"/>
      <path id="Path_135" data-name="Path 135" d="M556.819,358.327l-5.386,8.9-11.326-7.6L527.1,350.89,519.254,330.3l-7.975-14.6,9.995-2.945s3.44.132,7.886,8.292,8.4,22.3,8.4,22.3l5.313,4.136Z" transform="translate(-466.591 -244.094)" fill="#6c63ff"/>
      <path id="Path_136" data-name="Path 136" d="M556.819,358.327l-5.386,8.9-11.326-7.6L527.1,350.89,519.254,330.3l-7.975-14.6,9.995-2.945s3.44.132,7.886,8.292,8.4,22.3,8.4,22.3l5.313,4.136Z" transform="translate(-466.591 -244.094)" opacity="0.2"/>
      <path id="Path_137" data-name="Path 137" d="M676.958,454.295l-13.8-.329-1.1-1.242-.774-.878-.847-.96-.94-1.064,1.6-2.484.762-1.184,3.088,2.028,2.19,1.436s1.834.611,4.016,1.532A26.693,26.693,0,0,1,676.958,454.295Z" transform="translate(-561.638 -329.638)" fill="#ffb8b8"/>
      <circle id="Ellipse_228" data-name="Ellipse 228" cx="9.462" cy="9.462" r="9.462" transform="translate(52.454 34.839)" fill="#ffb8b8"/>
      <path id="Path_138" data-name="Path 138" d="M537.168,252.116l-.946,13.719,11.827,1.419s0-11.354.946-12.773S537.168,252.116,537.168,252.116Z" transform="translate(-482.585 -205.214)" fill="#ffb8b8"/>
      <path id="Path_139" data-name="Path 139" d="M539.483,284.59l-15.32-6.488s-7.318-5.647-11.611-1.472l-1.927,2.756S498.887,285.7,498.887,290.9l1.331,26.331s-3.785,14.665,1.892,15.612l30.75,2.838a10.642,10.642,0,0,0,.473-11.827l1.419-15.612Z" transform="translate(-458.645 -219.947)" fill="#6c63ff"/>
      <path id="Path_140" data-name="Path 140" d="M583.033,302.038l10.408-.473s.763.8,3.128,9.793,5.387,23.8,5.387,23.8l15.121,19.155-7.352,7.352-19.734-21.669-2.7-21.869Z" transform="translate(-512.603 -236.922)" fill="#6c63ff"/>
      <path id="Path_141" data-name="Path 141" d="M526.512,435.991,492.5,433s-3.36,21.443-2.887,29.958.946,21.762.946,21.762l-3.785,57.716,14.665-1.892,1.892-47.781,6.15-26.019,7.1,33.115,4.731,42.577,12.773-1.419-4.258-51.566S533.608,443.087,526.512,435.991Z" transform="translate(-450.877 -321.202)" fill="#2f2e41"/>
      <path id="Path_142" data-name="Path 142" d="M593.813,727.483l4.258,1.419s8.989-2.365,6.623,3.785-8.989,5.2-8.989,5.2-8.042,6.15-11.354,1.419l1.892-9.935Z" transform="translate(-513.448 -510.036)" fill="#2f2e41"/>
      <path id="Path_143" data-name="Path 143" d="M497.553,727.483l4.258,1.419s8.988-2.365,6.623,3.785-8.988,5.2-8.988,5.2-8.042,6.15-11.354,1.419l1.892-9.935Z" transform="translate(-451.723 -510.036)" fill="#2f2e41"/>
      <path id="Path_144" data-name="Path 144" d="M527.708,230.93s-9.935-7.1-4.731-15.612c3.61-5.908,11.091-5.44,15.334-4.6a7.169,7.169,0,0,1,5.245,4.126c.71,1.656.71,3.312-2.129,3.312-5.677,0-2.839,4.258-2.839,4.258s-3.785.946-2.839,4.258S527.708,230.93,527.708,230.93Z" transform="translate(-473.126 -178.351)" fill="#2f2e41"/>
      <circle id="Ellipse_229" data-name="Ellipse 229" cx="1.161" cy="1.161" r="1.161" transform="translate(113.761 122.417)" fill="#fff"/>
      <path id="Path_145" data-name="Path 145" d="M683.061,458.839a1.537,1.537,0,0,0-.576-1.2,1.555,1.555,0,0,0-.971-.344c-.019,0-.035,0-.054,0a1.541,1.541,0,0,0-2.9-.259,1.147,1.147,0,0,0-1.466.348,13.377,13.377,0,0,1-3.32-.867,1.538,1.538,0,0,0-1.389.874,1.476,1.476,0,0,0-.159.673,1.526,1.526,0,0,0,.224.789,1.159,1.159,0,0,0-1,1.145,1.115,1.115,0,0,0,.066.379l2.167.054a1.039,1.039,0,0,0,.066-.221,1.589,1.589,0,0,0,.232.224l1.846.046.1-.081a.655.655,0,0,0,.058.085l2.5.058a.512.512,0,0,0,.042-.054.431.431,0,0,0,.031.058l2.008.046a1.141,1.141,0,0,0,.155-.433.16.16,0,0,0,.035.019,1.235,1.235,0,0,0-.019.205,1.29,1.29,0,0,0,.019.213l2.271.054a1.206,1.206,0,0,0,.031-.267,1.168,1.168,0,0,0-.248-.712A1.537,1.537,0,0,0,683.061,458.839Zm-4.144-.031a1.182,1.182,0,0,1-.228.213c.023.058.035.12.054.178a1.1,1.1,0,0,1,.344-.248A1.507,1.507,0,0,1,678.917,458.808Z" transform="translate(-569.301 -336.035)" fill="#fff"/>
      <circle id="Ellipse_230" data-name="Ellipse 230" cx="1.161" cy="1.161" r="1.161" transform="translate(124.208 122.804)" fill="#fff"/>
      <path id="Path_146" data-name="Path 146" d="M712.182,459.917a1.537,1.537,0,0,0-.577-1.2,1.554,1.554,0,0,0-.971-.344c-.019,0-.035,0-.054,0a1.541,1.541,0,0,0-2.9-.259,1.147,1.147,0,0,0-1.467.348,13.377,13.377,0,0,1-3.32-.867,1.538,1.538,0,0,0-1.389.874,1.476,1.476,0,0,0-.159.673,1.525,1.525,0,0,0,.224.789,1.159,1.159,0,0,0-1,1.145,1.117,1.117,0,0,0,.066.379l2.167.054a1.042,1.042,0,0,0,.066-.221,1.6,1.6,0,0,0,.232.224l1.846.046.1-.081a.644.644,0,0,0,.058.085l2.5.058a.5.5,0,0,0,.043-.054.431.431,0,0,0,.031.058l2.008.046a1.142,1.142,0,0,0,.155-.433.153.153,0,0,0,.035.019,1.223,1.223,0,0,0-.019.205,1.276,1.276,0,0,0,.019.213l2.271.054a1.209,1.209,0,0,0,.031-.267,1.167,1.167,0,0,0-.248-.712A1.537,1.537,0,0,0,712.182,459.917Zm-4.144-.031a1.182,1.182,0,0,1-.228.213c.023.058.035.12.054.178a1.1,1.1,0,0,1,.344-.248A1.516,1.516,0,0,1,708.038,459.886Z" transform="translate(-587.974 -336.726)" fill="#fff"/>
      <circle id="Ellipse_231" data-name="Ellipse 231" cx="0.871" cy="0.871" r="0.871" transform="translate(107.763 122.61)" fill="#fff"/>
      <path id="Path_147" data-name="Path 147" d="M671.531,460.319a1.153,1.153,0,0,0-.432-.9,1.166,1.166,0,0,0-.728-.258c-.015,0-.026,0-.041,0a1.156,1.156,0,0,0-2.174-.194.86.86,0,0,0-1.1.261,10.033,10.033,0,0,1-2.49-.65,1.154,1.154,0,0,0-1.042.656,1.107,1.107,0,0,0-.119.5,1.144,1.144,0,0,0,.168.592.869.869,0,0,0-.749.859.838.838,0,0,0,.049.284l1.625.041a.778.778,0,0,0,.049-.165,1.188,1.188,0,0,0,.174.168l1.384.035.078-.061a.49.49,0,0,0,.043.064l1.872.044a.392.392,0,0,0,.032-.041.305.305,0,0,0,.023.044l1.506.035a.856.856,0,0,0,.116-.325.116.116,0,0,0,.026.015.916.916,0,0,0-.015.154.952.952,0,0,0,.015.16l1.7.041a.9.9,0,0,0,.023-.2.876.876,0,0,0-.186-.534A1.153,1.153,0,0,0,671.531,460.319Zm-3.108-.023a.889.889,0,0,1-.171.16c.017.044.026.09.041.133a.828.828,0,0,1,.258-.186A1.134,1.134,0,0,1,668.423,460.3Z" transform="translate(-563.768 -337.418)" fill="#fff"/>
      <circle id="Ellipse_232" data-name="Ellipse 232" cx="0.871" cy="0.871" r="0.871" transform="translate(95.381 122.61)" fill="#fff"/>
      <path id="Path_148" data-name="Path 148" d="M637.018,460.319a1.153,1.153,0,0,0-.432-.9,1.166,1.166,0,0,0-.728-.258c-.015,0-.026,0-.041,0a1.156,1.156,0,0,0-2.174-.194.86.86,0,0,0-1.1.261,10.033,10.033,0,0,1-2.49-.65,1.154,1.154,0,0,0-1.042.656,1.1,1.1,0,0,0-.119.5,1.145,1.145,0,0,0,.168.592.869.869,0,0,0-.749.859.836.836,0,0,0,.049.284l1.625.041a.778.778,0,0,0,.049-.165,1.187,1.187,0,0,0,.174.168l1.384.035.078-.061a.491.491,0,0,0,.044.064l1.872.044a.391.391,0,0,0,.032-.041.3.3,0,0,0,.023.044l1.506.035a.856.856,0,0,0,.116-.325.116.116,0,0,0,.026.015.915.915,0,0,0-.014.154.958.958,0,0,0,.014.16l1.7.041a.9.9,0,0,0,.023-.2.875.875,0,0,0-.186-.534A1.153,1.153,0,0,0,637.018,460.319Zm-3.108-.023a.89.89,0,0,1-.171.16c.017.044.026.09.041.134a.827.827,0,0,1,.258-.186A1.135,1.135,0,0,1,633.91,460.3Z" transform="translate(-541.637 -337.418)" fill="#fff"/>
      <path id="Path_149" data-name="Path 149" d="M762.028,428.727v-2.322h-1.935v.387c-.214,0-.387.26-.387.58s.173.58.387.58v.774h-1.548v7.739h5.03v-7.739Z" transform="translate(-625.147 -316.974)" fill="#3f3d56"/>
    </g>
  </g>
</svg>
